{
	"asset":{
		"generator":"Khronos glTF Blender I/O v4.1.63",
		"version":"2.0"
	},
	"scene":0,
	"scenes":[
		{
			"name":"Scene",
			"nodes":[
				10,
				28
			]
		}
	],
	"nodes":[
		{
			"name":"_6"
		},
		{
			"children":[
				0
			],
			"name":"Frame_1_5"
		},
		{
			"children":[
				1
			],
			"name":"glasses OBJ.OBJ_0_4"
		},
		{
			"children":[
				2
			],
			"name":"GLTF_SceneRootNode_3",
			"rotation":[
				0.70710688829422,
				0,
				0,
				0.7071066498756409
			]
		},
		{
			"children":[
				3
			],
			"name":"root_2"
		},
		{
			"children":[
				4
			],
			"name":"RootNode (model correction matrix)_1"
		},
		{
			"children":[
				5
			],
			"name":"RootNode (gltf orientation matrix)_0",
			"rotation":[
				-0.70710688829422,
				0,
				0,
				0.7071066498756409
			]
		},
		{
			"children":[
				6
			],
			"name":"GLTF_SceneRootNode",
			"rotation":[
				0.70710688829422,
				0,
				0,
				0.7071066498756409
			]
		},
		{
			"children":[
				7
			],
			"name":"root"
		},
		{
			"children":[
				8
			],
			"name":"RootNode (model correction matrix)"
		},
		{
			"children":[
				9
			],
			"name":"RootNode (gltf orientation matrix)",
			"rotation":[
				-0.70710688829422,
				0,
				0,
				0.7071066498756409
			]
		},
		{
			"mesh":0,
			"name":"Mesh_0.002"
		},
		{
			"children":[
				11
			],
			"name":"_6.001"
		},
		{
			"children":[
				12
			],
			"name":"Frame_1_5.001"
		},
		{
			"mesh":1,
			"name":"Mesh_2.001"
		},
		{
			"children":[
				14
			],
			"name":"_10"
		},
		{
			"children":[
				15
			],
			"name":"Glasses_3_9"
		},
		{
			"mesh":2,
			"name":"Mesh_1.001"
		},
		{
			"children":[
				17
			],
			"name":"_8"
		},
		{
			"children":[
				18
			],
			"name":"Handles_2_7"
		},
		{
			"children":[
				13,
				16,
				19
			],
			"name":"glasses OBJ.OBJ_0_4.001"
		},
		{
			"children":[
				20
			],
			"name":"GLTF_SceneRootNode_3.001",
			"rotation":[
				0.70710688829422,
				0,
				0,
				0.7071066498756409
			]
		},
		{
			"children":[
				21
			],
			"name":"root_2.001"
		},
		{
			"children":[
				22
			],
			"name":"RootNode (model correction matrix)_1.001"
		},
		{
			"children":[
				23
			],
			"name":"RootNode (gltf orientation matrix)_0.001",
			"rotation":[
				-0.70710688829422,
				0,
				0,
				0.7071066498756409
			]
		},
		{
			"children":[
				24
			],
			"name":"GLTF_SceneRootNode.001",
			"rotation":[
				0.70710688829422,
				0,
				0,
				0.7071066498756409
			]
		},
		{
			"children":[
				25
			],
			"name":"root.001"
		},
		{
			"children":[
				26
			],
			"name":"RootNode (model correction matrix).001"
		},
		{
			"children":[
				27
			],
			"name":"RootNode (gltf orientation matrix).001",
			"rotation":[
				-0.70710688829422,
				0,
				0,
				0.7071066498756409
			]
		}
	],
	"materials":[
		{
			"doubleSided":true,
			"name":"Material.001",
			"pbrMetallicRoughness":{
				"baseColorTexture":{
					"index":0
				},
				"metallicFactor":0.38181817531585693,
				"roughnessFactor":0.5
			}
		},
		{
			"alphaMode":"BLEND",
			"doubleSided":true,
			"name":"Material.003",
			"pbrMetallicRoughness":{
				"baseColorFactor":[
					0.22289204597473145,
					0.22289204597473145,
					0.22289204597473145,
					0.40909090638160706
				],
				"metallicFactor":0,
				"roughnessFactor":0.22727271914482117
			}
		},
		{
			"doubleSided":true,
			"name":"Material.002",
			"pbrMetallicRoughness":{
				"baseColorTexture":{
					"index":1
				},
				"metallicFactor":0.11272726953029633,
				"roughnessFactor":0.5
			}
		}
	],
	"meshes":[
		{
			"name":"Mesh_0.002",
			"primitives":[
				{
					"attributes":{
						"POSITION":0,
						"NORMAL":1,
						"TEXCOORD_0":2
					},
					"indices":3,
					"material":0
				}
			]
		},
		{
			"name":"Mesh_2.001",
			"primitives":[
				{
					"attributes":{
						"POSITION":4,
						"NORMAL":5,
						"TEXCOORD_0":6
					},
					"indices":7,
					"material":1
				}
			]
		},
		{
			"name":"Mesh_1.001",
			"primitives":[
				{
					"attributes":{
						"POSITION":8,
						"NORMAL":9,
						"TEXCOORD_0":10,
						"TEXCOORD_1":11,
						"TEXCOORD_2":12
					},
					"indices":13,
					"material":2
				}
			]
		}
	],
	"textures":[
		{
			"sampler":0,
			"source":0
		},
		{
			"sampler":0,
			"source":1
		}
	],
	"images":[
		{
			"mimeType":"image/png",
			"name":"Frame",
			"uri":"Frame.png"
		},
		{
			"mimeType":"image/png",
			"name":"Ear Stands",
			"uri":"Ear%20Stands.png"
		}
	],
	"accessors":[
		{
			"bufferView":0,
			"componentType":5126,
			"count":22357,
			"max":[
				1.0099765062332153,
				0.30462437868118286,
				0.16478267312049866
			],
			"min":[
				-1.0100760459899902,
				-0.3883924186229706,
				-0.03970158100128174
			],
			"type":"VEC3"
		},
		{
			"bufferView":1,
			"componentType":5126,
			"count":22357,
			"type":"VEC3"
		},
		{
			"bufferView":2,
			"componentType":5126,
			"count":22357,
			"type":"VEC2"
		},
		{
			"bufferView":3,
			"componentType":5123,
			"count":122208,
			"type":"SCALAR"
		},
		{
			"bufferView":4,
			"componentType":5126,
			"count":32278,
			"max":[
				0.9215558171272278,
				0.2608802914619446,
				0.12176568061113358
			],
			"min":[
				-0.9215555787086487,
				-0.3407418429851532,
				-0.005788560025393963
			],
			"type":"VEC3"
		},
		{
			"bufferView":5,
			"componentType":5126,
			"count":32278,
			"type":"VEC3"
		},
		{
			"bufferView":6,
			"componentType":5126,
			"count":32278,
			"type":"VEC2"
		},
		{
			"bufferView":7,
			"componentType":5123,
			"count":173952,
			"type":"SCALAR"
		},
		{
			"bufferView":8,
			"componentType":5126,
			"count":15008,
			"max":[
				1.0079066753387451,
				0.23205721378326416,
				-0.037404369562864304
			],
			"min":[
				-1.0078390836715698,
				-0.17230546474456787,
				-1.7524640560150146
			],
			"type":"VEC3"
		},
		{
			"bufferView":9,
			"componentType":5126,
			"count":15008,
			"type":"VEC3"
		},
		{
			"bufferView":10,
			"componentType":5126,
			"count":15008,
			"type":"VEC2"
		},
		{
			"bufferView":11,
			"componentType":5126,
			"count":15008,
			"type":"VEC2"
		},
		{
			"bufferView":12,
			"componentType":5126,
			"count":15008,
			"type":"VEC2"
		},
		{
			"bufferView":13,
			"componentType":5123,
			"count":65760,
			"type":"SCALAR"
		}
	],
	"bufferViews":[
		{
			"buffer":0,
			"byteLength":268284,
			"byteOffset":0,
			"target":34962
		},
		{
			"buffer":0,
			"byteLength":268284,
			"byteOffset":268284,
			"target":34962
		},
		{
			"buffer":0,
			"byteLength":178856,
			"byteOffset":536568,
			"target":34962
		},
		{
			"buffer":0,
			"byteLength":244416,
			"byteOffset":715424,
			"target":34963
		},
		{
			"buffer":0,
			"byteLength":387336,
			"byteOffset":959840,
			"target":34962
		},
		{
			"buffer":0,
			"byteLength":387336,
			"byteOffset":1347176,
			"target":34962
		},
		{
			"buffer":0,
			"byteLength":258224,
			"byteOffset":1734512,
			"target":34962
		},
		{
			"buffer":0,
			"byteLength":347904,
			"byteOffset":1992736,
			"target":34963
		},
		{
			"buffer":0,
			"byteLength":180096,
			"byteOffset":2340640,
			"target":34962
		},
		{
			"buffer":0,
			"byteLength":180096,
			"byteOffset":2520736,
			"target":34962
		},
		{
			"buffer":0,
			"byteLength":120064,
			"byteOffset":2700832,
			"target":34962
		},
		{
			"buffer":0,
			"byteLength":120064,
			"byteOffset":2820896,
			"target":34962
		},
		{
			"buffer":0,
			"byteLength":120064,
			"byteOffset":2940960,
			"target":34962
		},
		{
			"buffer":0,
			"byteLength":131520,
			"byteOffset":3061024,
			"target":34963
		}
	],
	"samplers":[
		{
			"magFilter":9729,
			"minFilter":9987
		}
	],
	"buffers":[
		{
			"byteLength":3192544,
			"uri":"glft001.bin"
		}
	]
}
