{
	"asset":{
		"generator":"Khronos glTF Blender I/O v3.6.28",
		"version":"2.0"
	},
	"extensionsUsed":[
		"KHR_materials_specular",
		"KHR_materials_ior"
	],
	"scene":0,
	"scenes":[
		{
			"name":"Scene",
			"nodes":[
				70
			]
		}
	],
	"nodes":[
		{
			"name":"j2",
			"rotation":[
				-8.082118085894763e-08,
				0,
				0,
				1
			],
			"translation":[
				-7.711999893188477,
				0.13599826395511627,
				-6.543999671936035
			]
		},
		{
			"name":"j4",
			"rotation":[
				-8.082116664809291e-08,
				0,
				0,
				1
			],
			"translation":[
				-6.871999740600586,
				-3.648000717163086,
				-4.85599946975708
			]
		},
		{
			"name":"j6",
			"rotation":[
				-8.082118085894763e-08,
				0,
				0,
				1
			],
			"translation":[
				-4.927999973297119,
				-6.767999172210693,
				-2.320000171661377
			]
		},
		{
			"name":"j8",
			"rotation":[
				-8.145259755565348e-08,
				0,
				0,
				1
			],
			"translation":[
				-1.7279999256134033,
				-8.800000190734863,
				-0.04800019785761833
			]
		},
		{
			"name":"j10",
			"rotation":[
				-8.145259755565348e-08,
				0,
				0,
				1
			],
			"translation":[
				1.9199999570846558,
				-8.776000022888184,
				-0.04800019785761833
			]
		},
		{
			"name":"j12",
			"rotation":[
				-8.082119506980234e-08,
				0,
				0,
				1
			],
			"translation":[
				5.056000232696533,
				-6.711998462677002,
				-2.3359999656677246
			]
		},
		{
			"name":"j14",
			"rotation":[
				-8.082117375352027e-08,
				0,
				0,
				1
			],
			"translation":[
				6.951999664306641,
				-3.6000003814697266,
				-4.87999963760376
			]
		},
		{
			"name":"j16",
			"rotation":[
				-8.082118085894763e-08,
				0,
				0,
				1
			],
			"translation":[
				7.760000228881836,
				0.1679992526769638,
				-6.567999839782715
			]
		},
		{
			"name":"j28",
			"rotation":[
				-8.082118085894763e-08,
				0,
				0,
				1
			],
			"translation":[
				-0.01600000075995922,
				3.3454599380493164,
				1.8368299007415771
			]
		},
		{
			"name":"j29",
			"rotation":[
				-8.082118085894763e-08,
				0,
				0,
				1
			],
			"translation":[
				-0.01600000075995922,
				2.2516400814056396,
				2.424553155899048
			]
		},
		{
			"name":"j30",
			"rotation":[
				-8.082118085894763e-08,
				0,
				0,
				1
			],
			"translation":[
				-0.01600000075995922,
				1.157820224761963,
				3.0122768878936768
			]
		},
		{
			"name":"j33",
			"rotation":[
				-8.082118085894763e-08,
				0,
				0,
				1
			],
			"translation":[
				-0.6800000071525574,
				-1.345729947090149,
				1.8517999649047852
			]
		},
		{
			"name":"j34",
			"rotation":[
				-8.082118085894763e-08,
				0,
				0,
				1
			],
			"translation":[
				-0.01600000075995922,
				-1.523459792137146,
				2.3595902919769287
			]
		},
		{
			"name":"j35",
			"rotation":[
				-8.082118085894763e-08,
				0,
				0,
				1
			],
			"translation":[
				0.656000018119812,
				-1.345729947090149,
				1.859800100326538
			]
		},
		{
			"name":"j1",
			"translation":[
				-7.967999458312988,
				2.1759986877441406,
				-6.975999355316162
			]
		},
		{
			"name":"j17",
			"translation":[
				8,
				2.207998514175415,
				-7.007999897003174
			]
		},
		{
			"name":"j15",
			"translation":[
				7.519999980926514,
				-1.8720009326934814,
				-6.128000259399414
			]
		},
		{
			"name":"j9",
			"translation":[
				0.1120000034570694,
				-9.455999374389648,
				0.9439999461174011
			]
		},
		{
			"name":"j3",
			"translation":[
				-7.455999374389648,
				-1.904000997543335,
				-6.111999988555908
			]
		},
		{
			"name":"j5",
			"translation":[
				-6.288000106811523,
				-5.392001152038574,
				-3.59999942779541
			]
		},
		{
			"name":"j13",
			"translation":[
				6.383999347686768,
				-5.328001022338867,
				-3.6319987773895264
			]
		},
		{
			"name":"j11",
			"translation":[
				3.727999687194824,
				-8.095999717712402,
				-1.0400002002716064
			]
		},
		{
			"name":"j7",
			"translation":[
				-3.568000078201294,
				-8.144000053405762,
				-1.0400002002716064
			]
		},
		{
			"name":"j20",
			"translation":[
				-3.806879758834839,
				5.392000198364258,
				1.1201190948486328
			]
		},
		{
			"name":"j25",
			"translation":[
				3.727999687194824,
				5.631999492645264,
				1.136000633239746
			]
		},
		{
			"name":"j49",
			"translation":[
				-2.5280001163482666,
				-4.480000019073486,
				0.6880007386207581
			]
		},
		{
			"name":"j55",
			"translation":[
				2.4479997158050537,
				-4.432000160217285,
				0.7840006947517395
			]
		},
		{
			"name":"j68",
			"translation":[
				-0.8479999303817749,
				-4.319999694824219,
				1.4560006856918335
			]
		},
		{
			"name":"j66",
			"translation":[
				0.7359999418258667,
				-4.304000377655029,
				1.4880006313323975
			]
		},
		{
			"name":"j65",
			"translation":[
				2.175999879837036,
				-4.432000160217285,
				0.848000705242157
			]
		},
		{
			"name":"j61",
			"translation":[
				-2.2720000743865967,
				-4.495999336242676,
				0.7520007491111755
			]
		},
		{
			"name":"j60",
			"translation":[
				-1.7599999904632568,
				-4.928000450134277,
				1.2639992237091064
			]
		},
		{
			"name":"j59",
			"translation":[
				-0.9440000057220459,
				-5.136001110076904,
				1.8080008029937744
			]
		},
		{
			"name":"j58",
			"translation":[
				-0.04800000041723251,
				-5.264000415802002,
				1.9360008239746094
			]
		},
		{
			"name":"j57",
			"translation":[
				0.8320000171661377,
				-5.12000036239624,
				1.8240007162094116
			]
		},
		{
			"name":"j56",
			"translation":[
				1.6640000343322754,
				-4.895999431610107,
				1.328000783920288
			]
		},
		{
			"name":"j54",
			"translation":[
				1.440000057220459,
				-3.552000045776367,
				1.6160004138946533
			]
		},
		{
			"name":"j53",
			"translation":[
				0.527999997138977,
				-3.0719993114471436,
				1.9840002059936523
			]
		},
		{
			"name":"j51",
			"translation":[
				-0.671999990940094,
				-3.0880000591278076,
				1.9680005311965942
			]
		},
		{
			"name":"j50",
			"translation":[
				-1.5679998397827148,
				-3.599999189376831,
				1.552000641822815
			]
		},
		{
			"name":"j48",
			"translation":[
				2.6559998989105225,
				2.7360000610351562,
				-0.015999997034668922
			]
		},
		{
			"name":"j47",
			"translation":[
				3.727999687194824,
				2.8479998111724854,
				-0.09599997848272324
			]
		},
		{
			"name":"j46",
			"translation":[
				4.480000019073486,
				3.1679999828338623,
				-0.4800005257129669
			]
		},
		{
			"name":"j45",
			"translation":[
				3.7760000228881836,
				3.4719998836517334,
				0.17599941790103912
			]
		},
		{
			"name":"j44",
			"rotation":[
				1.2628333934117109e-09,
				0,
				0,
				1
			],
			"translation":[
				2.799999952316284,
				3.5199999809265137,
				0.17599940299987793
			]
		},
		{
			"name":"j43",
			"translation":[
				1.6640000343322754,
				3.1039998531341553,
				-0.224000483751297
			]
		},
		{
			"name":"j42",
			"translation":[
				-3.6640000343322754,
				2.559999942779541,
				-0.03199993446469307
			]
		},
		{
			"name":"j41",
			"translation":[
				-2.5920000076293945,
				2.6080000400543213,
				0.016000056639313698
			]
		},
		{
			"name":"j40",
			"translation":[
				-1.6319999694824219,
				2.991999864578247,
				-0.19200047850608826
			]
		},
		{
			"name":"j39",
			"rotation":[
				1.2628333934117109e-09,
				0,
				0,
				1
			],
			"translation":[
				-2.7679998874664307,
				3.295999765396118,
				0.22399944067001343
			]
		},
		{
			"name":"j38",
			"rotation":[
				-2.5256561286823853e-09,
				0,
				0,
				1
			],
			"translation":[
				-3.727999687194824,
				3.2159998416900635,
				0.2719995379447937
			]
		},
		{
			"name":"j37",
			"translation":[
				-4.432000160217285,
				2.943999767303467,
				-0.3840004801750183
			]
		},
		{
			"name":"j27",
			"translation":[
				5.535999774932861,
				4.831999778747559,
				-0.6080008149147034
			]
		},
		{
			"name":"j26",
			"translation":[
				4.76800012588501,
				5.343999862670898,
				0.384000688791275
			]
		},
		{
			"name":"j24",
			"translation":[
				2.7360000610351562,
				5.711999893188477,
				1.520000696182251
			]
		},
		{
			"name":"j23",
			"translation":[
				1.6319999694824219,
				5.311999797821045,
				1.6159989833831787
			]
		},
		{
			"name":"j22",
			"translation":[
				-1.6959998607635498,
				5.184000015258789,
				1.6479990482330322
			]
		},
		{
			"name":"j21",
			"rotation":[
				-1.0102645831011614e-08,
				0,
				0,
				1
			],
			"translation":[
				-2.815999746322632,
				5.50399923324585,
				1.552000880241394
			]
		},
		{
			"name":"j19",
			"translation":[
				-4.831999778747559,
				5.0879998207092285,
				0.44800078868865967
			]
		},
		{
			"name":"j18",
			"translation":[
				-5.599999904632568,
				4.62399959564209,
				-0.5440006852149963
			]
		},
		{
			"name":"j67",
			"translation":[
				-0.04800000041723251,
				-4.352000713348389,
				1.6000008583068848
			]
		},
		{
			"name":"j64",
			"translation":[
				0.7359999418258667,
				-3.9040000438690186,
				1.6640007495880127
			]
		},
		{
			"name":"j63",
			"translation":[
				-0.01600000075995922,
				-3.8399999141693115,
				1.7920007705688477
			]
		},
		{
			"name":"j62",
			"translation":[
				-0.8639999628067017,
				-3.919999837875366,
				1.6320008039474487
			]
		},
		{
			"name":"j52",
			"translation":[
				-0.06400000303983688,
				-3.2159996032714844,
				2.0480005741119385
			]
		},
		{
			"name":"j32",
			"rotation":[
				-8.082118085894763e-08,
				0,
				0,
				1
			],
			"translation":[
				-1.343999981880188,
				-1.1680002212524414,
				1.344000220298767
			]
		},
		{
			"name":"j36",
			"rotation":[
				-8.082118085894763e-08,
				0,
				0,
				1
			],
			"translation":[
				1.3279999494552612,
				-1.1680002212524414,
				1.3600000143051147
			]
		},
		{
			"name":"j31",
			"rotation":[
				-8.082118085894763e-08,
				0,
				0,
				1
			],
			"translation":[
				-0.01600000075995922,
				0.06400059908628464,
				3.5999999046325684
			]
		},
		{
			"children":[
				0,
				1,
				2,
				3,
				4,
				5,
				6,
				7,
				8,
				9,
				10,
				11,
				12,
				13,
				14,
				15,
				16,
				17,
				18,
				19,
				20,
				21,
				22,
				23,
				24,
				25,
				26,
				27,
				28,
				29,
				30,
				31,
				32,
				33,
				34,
				35,
				36,
				37,
				38,
				39,
				40,
				41,
				42,
				43,
				44,
				45,
				46,
				47,
				48,
				49,
				50,
				51,
				52,
				53,
				54,
				55,
				56,
				57,
				58,
				59,
				60,
				61,
				62,
				63,
				64,
				65,
				66,
				67
			],
			"name":"root",
			"rotation":[
				-0.7071066498756409,
				0,
				0,
				0.70710688829422
			]
		},
		{
			"mesh":0,
			"name":"head_mesh",
			"skin":0
		},
		{
			"children":[
				69,
				68
			],
			"name":"Armature",
			"rotation":[
				0.7071068286895752,
				0,
				0,
				0.7071068286895752
			],
			"scale":[
				0.009999999776482582,
				0.009999999776482582,
				0.009999999776482582
			]
		}
	],
	"materials":[
		{
			"doubleSided":true,
			"extensions":{
				"KHR_materials_specular":{
					"specularColorFactor":[
						2.371357614441398,
						2.371357614441398,
						2.371357614441398
					]
				},
				"KHR_materials_ior":{
					"ior":1.4500000476837158
				}
			},
			"name":"blinn1.001",
			"pbrMetallicRoughness":{
				"baseColorFactor":[
					0.5,
					0.5,
					0.5,
					1
				],
				"metallicFactor":0.5,
				"roughnessFactor":0.7487671971321106
			}
		}
	],
	"meshes":[
		{
			"extras":{
				"targetNames":[
					"blank_blendshape"
				]
			},
			"name":"Mesh.001",
			"primitives":[
				{
					"attributes":{
						"COLOR_0":0,
						"POSITION":1,
						"NORMAL":2,
						"TEXCOORD_0":3,
						"JOINTS_0":4,
						"WEIGHTS_0":5
					},
					"indices":6,
					"material":0,
					"targets":[
						{
							"POSITION":7,
							"NORMAL":8
						}
					]
				}
			],
			"weights":[
				0
			]
		}
	],
	"skins":[
		{
			"inverseBindMatrices":9,
			"joints":[
				68,
				0,
				1,
				2,
				3,
				4,
				5,
				6,
				7,
				8,
				9,
				10,
				11,
				12,
				13,
				14,
				15,
				16,
				17,
				18,
				19,
				20,
				21,
				22,
				23,
				24,
				25,
				26,
				27,
				28,
				29,
				30,
				31,
				32,
				33,
				34,
				35,
				36,
				37,
				38,
				39,
				40,
				41,
				42,
				43,
				44,
				45,
				46,
				47,
				48,
				49,
				50,
				51,
				52,
				53,
				54,
				55,
				56,
				57,
				58,
				59,
				60,
				61,
				62,
				63,
				64,
				65,
				66,
				67
			],
			"name":"Armature"
		}
	],
	"accessors":[
		{
			"bufferView":0,
			"componentType":5123,
			"count":6938,
			"normalized":true,
			"type":"VEC4"
		},
		{
			"bufferView":1,
			"componentType":5126,
			"count":6938,
			"max":[
				0.09478500485420227,
				0.15419384837150574,
				0.040088851004838943
			],
			"min":[
				-0.0947863906621933,
				-0.09465811401605606,
				-0.18106067180633545
			],
			"type":"VEC3"
		},
		{
			"bufferView":2,
			"componentType":5126,
			"count":6938,
			"type":"VEC3"
		},
		{
			"bufferView":3,
			"componentType":5126,
			"count":6938,
			"type":"VEC2"
		},
		{
			"bufferView":4,
			"componentType":5121,
			"count":6938,
			"type":"VEC4"
		},
		{
			"bufferView":5,
			"componentType":5126,
			"count":6938,
			"type":"VEC4"
		},
		{
			"bufferView":6,
			"componentType":5123,
			"count":41016,
			"type":"SCALAR"
		},
		{
			"bufferView":7,
			"componentType":5126,
			"count":6938,
			"max":[
				3.725290298461914e-09,
				7.450580596923828e-09,
				2.9802322387695312e-08
			],
			"min":[
				-7.450580596923828e-09,
				-7.450580596923828e-09,
				-2.9802322387695312e-08
			],
			"type":"VEC3"
		},
		{
			"bufferView":8,
			"componentType":5126,
			"count":6938,
			"type":"VEC3"
		},
		{
			"bufferView":9,
			"componentType":5126,
			"count":69,
			"type":"MAT4"
		}
	],
	"bufferViews":[
		{
			"buffer":0,
			"byteLength":55504,
			"byteOffset":0,
			"target":34962
		},
		{
			"buffer":0,
			"byteLength":83256,
			"byteOffset":55504,
			"target":34962
		},
		{
			"buffer":0,
			"byteLength":83256,
			"byteOffset":138760,
			"target":34962
		},
		{
			"buffer":0,
			"byteLength":55504,
			"byteOffset":222016,
			"target":34962
		},
		{
			"buffer":0,
			"byteLength":27752,
			"byteOffset":277520,
			"target":34962
		},
		{
			"buffer":0,
			"byteLength":111008,
			"byteOffset":305272,
			"target":34962
		},
		{
			"buffer":0,
			"byteLength":82032,
			"byteOffset":416280,
			"target":34963
		},
		{
			"buffer":0,
			"byteLength":83256,
			"byteOffset":498312,
			"target":34962
		},
		{
			"buffer":0,
			"byteLength":83256,
			"byteOffset":581568,
			"target":34962
		},
		{
			"buffer":0,
			"byteLength":4416,
			"byteOffset":664824
		}
	],
	"buffers":[
		{
			"byteLength":669240,
			"uri":"face_rigged.bin"
		}
	]
}
