{
  "accessors": [
    {
      "bufferView": 2,
      "componentType": 5126,
      "count": 597,
      "max": [
        22.429100036621094,
        44.913299560546875,
        3.9130098819732666
      ],
      "min": [
        16.84980010986328,
        1.258489966392517,
        -8.976300239562988
      ],
      "type": "VEC3"
    },
    {
      "bufferView": 2,
      "byteOffset": 7164,
      "componentType": 5126,
      "count": 597,
      "max": [
        0.9996870160102844,
        0.9881467819213867,
        0.9966833591461182
      ],
      "min": [
        -0.999862790107727,
        -0.9571084976196289,
        -0.9999521374702454
      ],
      "type": "VEC3"
    },
    {
      "bufferView": 3,
      "componentType": 5126,
      "count": 597,
      "max": [
        0.9999980926513672,
        1.0,
        0.8051612377166748,
        1.0
      ],
      "min": [
        -0.9940263032913208,
        -0.9999344944953918,
        -0.8548786640167236,
        1.0
      ],
      "type": "VEC4"
    },
    {
      "bufferView": 1,
      "componentType": 5126,
      "count": 597,
      "max": [
        0.9929559826850891,
        0.9909430146217346
      ],
      "min": [
        0.0070442501455545425,
        0.009056690149009228
      ],
      "type": "VEC2"
    },
    {
      "bufferView": 0,
      "componentType": 5125,
      "count": 2592,
      "type": "SCALAR"
    },
    {
      "bufferView": 2,
      "byteOffset": 14328,
      "componentType": 5126,
      "count": 5253,
      "max": [
        22.88960075378418,
        1.9159899950027466,
        5.059989929199219
      ],
      "min": [
        -22.866300582885742,
        0.01075739972293377,
        -10.220100402832031
      ],
      "type": "VEC3"
    },
    {
      "bufferView": 2,
      "byteOffset": 77364,
      "componentType": 5126,
      "count": 5253,
      "max": [
        0.9969516396522522,
        0.9961467385292053,
        0.9981673359870911
      ],
      "min": [
        -0.9985078573226929,
        -1.0,
        -0.9981665015220642
      ],
      "type": "VEC3"
    },
    {
      "bufferView": 3,
      "byteOffset": 9552,
      "componentType": 5126,
      "count": 5253,
      "max": [
        1.0,
        0.9985886812210083,
        0.7340825200080872,
        1.0
      ],
      "min": [
        -1.0,
        -0.9986016154289246,
        -0.73787522315979,
        1.0
      ],
      "type": "VEC4"
    },
    {
      "bufferView": 1,
      "byteOffset": 4776,
      "componentType": 5126,
      "count": 5253,
      "max": [
        0.9911019802093506,
        0.9919750094413757
      ],
      "min": [
        0.008898040279746056,
        0.008024930022656918
      ],
      "type": "VEC2"
    },
    {
      "bufferView": 0,
      "byteOffset": 10368,
      "componentType": 5125,
      "count": 24348,
      "type": "SCALAR"
    },
    {
      "bufferView": 2,
      "byteOffset": 140400,
      "componentType": 5126,
      "count": 588,
      "max": [
        19.668500900268555,
        1.1893999576568604,
        4.3639302253723145
      ],
      "min": [
        -19.418899536132813,
        0.49332600831985474,
        -9.48108959197998
      ],
      "type": "VEC3"
    },
    {
      "bufferView": 2,
      "byteOffset": 147456,
      "componentType": 5126,
      "count": 588,
      "max": [
        0.9999956488609314,
        0.9999432563781738,
        0.9999993443489075
      ],
      "min": [
        -0.9999956488609314,
        -0.9999432563781738,
        -0.9999799728393555
      ],
      "type": "VEC3"
    },
    {
      "bufferView": 1,
      "byteOffset": 46800,
      "componentType": 5126,
      "count": 588,
      "max": [
        0.9914249777793884,
        0.9904209971427917
      ],
      "min": [
        0.00857532024383545,
        0.009579059667885303
      ],
      "type": "VEC2"
    },
    {
      "bufferView": 0,
      "byteOffset": 107760,
      "componentType": 5125,
      "count": 1692,
      "type": "SCALAR"
    },
    {
      "bufferView": 2,
      "byteOffset": 154512,
      "componentType": 5126,
      "count": 619,
      "max": [
        -16.84980010986328,
        44.913299560546875,
        3.9130098819732666
      ],
      "min": [
        -22.429100036621094,
        1.258489966392517,
        -8.976300239562988
      ],
      "type": "VEC3"
    },
    {
      "bufferView": 2,
      "byteOffset": 161940,
      "componentType": 5126,
      "count": 619,
      "max": [
        0.999862790107727,
        0.9881467819213867,
        0.9966833591461182
      ],
      "min": [
        -0.9996870160102844,
        -0.9661344289779663,
        -0.9999521374702454
      ],
      "type": "VEC3"
    },
    {
      "bufferView": 3,
      "byteOffset": 93600,
      "componentType": 5126,
      "count": 619,
      "max": [
        0.9999980926513672,
        0.9999344348907471,
        0.8053818941116333,
        1.0
      ],
      "min": [
        -0.9940264225006104,
        -1.0,
        -0.7986392974853516,
        1.0
      ],
      "type": "VEC4"
    },
    {
      "bufferView": 1,
      "byteOffset": 51504,
      "componentType": 5126,
      "count": 619,
      "max": [
        0.9929530024528503,
        0.9909459948539734
      ],
      "min": [
        0.0070472098886966705,
        0.009054060094058514
      ],
      "type": "VEC2"
    },
    {
      "bufferView": 0,
      "byteOffset": 114528,
      "componentType": 5125,
      "count": 2592,
      "type": "SCALAR"
    },
    {
      "bufferView": 2,
      "byteOffset": 169368,
      "componentType": 5126,
      "count": 672,
      "max": [
        20.991100311279297,
        1.2803599834442139,
        3.374419927597046
      ],
      "min": [
        -21.056800842285156,
        0.25709500908851624,
        1.145009994506836
      ],
      "type": "VEC3"
    },
    {
      "bufferView": 2,
      "byteOffset": 177432,
      "componentType": 5126,
      "count": 672,
      "max": [
        0.9939833283424377,
        0.9967706203460693,
        0.9947119951248169
      ],
      "min": [
        -0.9939838647842407,
        -0.9967578649520874,
        -0.9947071075439453
      ],
      "type": "VEC3"
    },
    {
      "bufferView": 3,
      "byteOffset": 103504,
      "componentType": 5126,
      "count": 672,
      "max": [
        0.999999463558197,
        0.9987530708312988,
        0.8100072145462036,
        1.0
      ],
      "min": [
        -0.9999514818191528,
        -0.999067485332489,
        -0.809611976146698,
        1.0
      ],
      "type": "VEC4"
    },
    {
      "bufferView": 1,
      "byteOffset": 56456,
      "componentType": 5126,
      "count": 672,
      "max": [
        0.9915310144424438,
        0.9912710189819336
      ],
      "min": [
        0.008468990214169025,
        0.008729100227355957
      ],
      "type": "VEC2"
    },
    {
      "bufferView": 0,
      "byteOffset": 124896,
      "componentType": 5125,
      "count": 2952,
      "type": "SCALAR"
    }
  ],
  "asset": {
    "extras": {
      "author": "ghinabin (https://sketchfab.com/ghinabin)",
      "license": "CC-BY-4.0 (http://creativecommons.org/licenses/by/4.0/)",
      "source": "https://sketchfab.com/3d-models/sunglass-1a723a9d046e4ba0a539d35050f6f60a",
      "title": "Sunglass"
    },
    "generator": "Sketchfab-12.68.0",
    "version": "2.0"
  },
  "bufferViews": [
    {
      "buffer": 0,
      "byteLength": 136704,
      "name": "floatBufferViews",
      "target": 34963
    },
    {
      "buffer": 0,
      "byteLength": 61832,
      "byteOffset": 136704,
      "byteStride": 8,
      "name": "floatBufferViews",
      "target": 34962
    },
    {
      "buffer": 0,
      "byteLength": 185496,
      "byteOffset": 198536,
      "byteStride": 12,
      "name": "floatBufferViews",
      "target": 34962
    },
    {
      "buffer": 0,
      "byteLength": 114256,
      "byteOffset": 384032,
      "byteStride": 16,
      "name": "floatBufferViews",
      "target": 34962
    }
  ],
  "buffers": [
    {
      "byteLength": 498288,
      "uri": "scene.bin"
    }
  ],
  "extensionsRequired": [
    "KHR_materials_pbrSpecularGlossiness"
  ],
  "extensionsUsed": [
    "KHR_materials_pbrSpecularGlossiness"
  ],
  "images": [
    {
      "uri": "textures/Handle_1_diffuse.png"
    },
    {
      "uri": "textures/Handle_1_specularGlossiness.png"
    },
    {
      "uri": "textures/Handle_1_emissive.png"
    },
    {
      "uri": "textures/Handle_1_normal.png"
    },
    {
      "uri": "textures/frame_diffuse.png"
    },
    {
      "uri": "textures/frame_specularGlossiness.png"
    },
    {
      "uri": "textures/frame_emissive.png"
    },
    {
      "uri": "textures/frame_normal.png"
    },
    {
      "uri": "textures/glass_diffuse.png"
    },
    {
      "uri": "textures/glass_specularGlossiness.png"
    },
    {
      "uri": "textures/handle_2_diffuse.png"
    },
    {
      "uri": "textures/handle_2_specularGlossiness.png"
    },
    {
      "uri": "textures/handle_2_emissive.png"
    },
    {
      "uri": "textures/handle_2_normal.png"
    },
    {
      "uri": "textures/metal_small_specularGlossiness.png"
    },
    {
      "uri": "textures/metal_small_emissive.png"
    },
    {
      "uri": "textures/metal_small_normal.png"
    }
  ],
  "materials": [
    {
      "doubleSided": true,
      "emissiveFactor": [
        1.0,
        1.0,
        1.0
      ],
      "emissiveTexture": {
        "index": 2
      },
      "extensions": {
        "KHR_materials_pbrSpecularGlossiness": {
          "diffuseFactor": [
            1.0,
            1.0,
            1.0,
            1.0
          ],
          "diffuseTexture": {
            "index": 0
          },
          "glossinessFactor": 1.0,
          "specularFactor": [
            1.0,
            1.0,
            1.0
          ],
          "specularGlossinessTexture": {
            "index": 1
          }
        }
      },
      "name": "Handle_1",
      "normalTexture": {
        "index": 3
      }
    },
    {
      "doubleSided": true,
      "emissiveFactor": [
        1.0,
        1.0,
        1.0
      ],
      "emissiveTexture": {
        "index": 6
      },
      "extensions": {
        "KHR_materials_pbrSpecularGlossiness": {
          "diffuseFactor": [
            1.0,
            1.0,
            1.0,
            1.0
          ],
          "diffuseTexture": {
            "index": 4
          },
          "glossinessFactor": 1.0,
          "specularFactor": [
            1.0,
            1.0,
            1.0
          ],
          "specularGlossinessTexture": {
            "index": 5
          }
        }
      },
      "name": "frame",
      "normalTexture": {
        "index": 7
      }
    },
    {
      "alphaMode": "BLEND",
      "doubleSided": true,
      "emissiveFactor": [
        1.0,
        1.0,
        1.0
      ],
      "emissiveTexture": {
        "index": 2
      },
      "extensions": {
        "KHR_materials_pbrSpecularGlossiness": {
          "diffuseFactor": [
            1.0,
            1.0,
            1.0,
            0.36652043850208854
          ],
          "diffuseTexture": {
            "index": 8
          },
          "glossinessFactor": 1.0,
          "specularFactor": [
            1.0,
            1.0,
            1.0
          ],
          "specularGlossinessTexture": {
            "index": 9
          }
        }
      },
      "name": "glass"
    },
    {
      "doubleSided": true,
      "emissiveFactor": [
        1.0,
        1.0,
        1.0
      ],
      "emissiveTexture": {
        "index": 12
      },
      "extensions": {
        "KHR_materials_pbrSpecularGlossiness": {
          "diffuseFactor": [
            1.0,
            1.0,
            1.0,
            1.0
          ],
          "diffuseTexture": {
            "index": 10
          },
          "glossinessFactor": 1.0,
          "specularFactor": [
            1.0,
            1.0,
            1.0
          ],
          "specularGlossinessTexture": {
            "index": 11
          }
        }
      },
      "name": "handle_2",
      "normalTexture": {
        "index": 13
      }
    },
    {
      "doubleSided": true,
      "emissiveFactor": [
        1.0,
        1.0,
        1.0
      ],
      "emissiveTexture": {
        "index": 15
      },
      "extensions": {
        "KHR_materials_pbrSpecularGlossiness": {
          "diffuseFactor": [
            1.0,
            1.0,
            1.0,
            1.0
          ],
          "diffuseTexture": {
            "index": 8
          },
          "glossinessFactor": 1.0,
          "specularFactor": [
            1.0,
            1.0,
            1.0
          ],
          "specularGlossinessTexture": {
            "index": 14
          }
        }
      },
      "name": "metal_small",
      "normalTexture": {
        "index": 16
      }
    }
  ],
  "meshes": [
    {
      "name": "Object_0",
      "primitives": [
        {
          "attributes": {
            "NORMAL": 1,
            "POSITION": 0,
            "TANGENT": 2,
            "TEXCOORD_0": 3
          },
          "indices": 4,
          "material": 0,
          "mode": 4
        }
      ]
    },
    {
      "name": "Object_1",
      "primitives": [
        {
          "attributes": {
            "NORMAL": 6,
            "POSITION": 5,
            "TANGENT": 7,
            "TEXCOORD_0": 8
          },
          "indices": 9,
          "material": 1,
          "mode": 4
        }
      ]
    },
    {
      "name": "Object_2",
      "primitives": [
        {
          "attributes": {
            "NORMAL": 11,
            "POSITION": 10,
            "TEXCOORD_0": 12
          },
          "indices": 13,
          "material": 2,
          "mode": 4
        }
      ]
    },
    {
      "name": "Object_3",
      "primitives": [
        {
          "attributes": {
            "NORMAL": 15,
            "POSITION": 14,
            "TANGENT": 16,
            "TEXCOORD_0": 17
          },
          "indices": 18,
          "material": 3,
          "mode": 4
        }
      ]
    },
    {
      "name": "Object_4",
      "primitives": [
        {
          "attributes": {
            "NORMAL": 20,
            "POSITION": 19,
            "TANGENT": 21,
            "TEXCOORD_0": 22
          },
          "indices": 23,
          "material": 4,
          "mode": 4
        }
      ]
    }
  ],
  "nodes": [
    {
      "children": [
        1
      ],
      "matrix": [
        1.0,
        0.0,
        0.0,
        0.0,
        0.0,
        2.220446049250313e-16,
        -1.0,
        0.0,
        0.0,
        1.0,
        2.220446049250313e-16,
        0.0,
        0.0,
        0.0,
        0.0,
        1.0
      ],
      "name": "Sketchfab_model"
    },
    {
      "children": [
        2,
        3,
        4,
        5,
        6
      ],
      "name": "PBR - Specular Glossiness.obj.cleaner.materialmerger.gles"
    },
    {
      "mesh": 0,
      "name": "Object_2"
    },
    {
      "mesh": 1,
      "name": "Object_3"
    },
    {
      "mesh": 2,
      "name": "Object_4"
    },
    {
      "mesh": 3,
      "name": "Object_5"
    },
    {
      "mesh": 4,
      "name": "Object_6"
    }
  ],
  "samplers": [
    {
      "magFilter": 9729,
      "minFilter": 9987,
      "wrapS": 10497,
      "wrapT": 10497
    }
  ],
  "scene": 0,
  "scenes": [
    {
      "name": "Sketchfab_Scene",
      "nodes": [
        0
      ]
    }
  ],
  "textures": [
    {
      "sampler": 0,
      "source": 0
    },
    {
      "sampler": 0,
      "source": 1
    },
    {
      "sampler": 0,
      "source": 2
    },
    {
      "sampler": 0,
      "source": 3
    },
    {
      "sampler": 0,
      "source": 4
    },
    {
      "sampler": 0,
      "source": 5
    },
    {
      "sampler": 0,
      "source": 6
    },
    {
      "sampler": 0,
      "source": 7
    },
    {
      "sampler": 0,
      "source": 8
    },
    {
      "sampler": 0,
      "source": 9
    },
    {
      "sampler": 0,
      "source": 10
    },
    {
      "sampler": 0,
      "source": 11
    },
    {
      "sampler": 0,
      "source": 12
    },
    {
      "sampler": 0,
      "source": 13
    },
    {
      "sampler": 0,
      "source": 14
    },
    {
      "sampler": 0,
      "source": 15
    },
    {
      "sampler": 0,
      "source": 16
    }
  ]
}
